<svg width="44" height="36" viewBox="0 0 44 36" fill="none" xmlns="http://www.w3.org/2000/svg">
<path d="M21.8066 22.25C17.9102 22.25 14.6973 19.1055 14.7656 15.1406C14.7656 11.2441 17.9102 8.03125 21.8066 8.03125C25.7031 8.03125 28.916 11.2441 28.916 15.1406C28.916 19.1055 25.7715 22.25 21.8066 22.25ZM21.8066 11.3125C19.7559 11.3125 17.9785 13.0898 17.9785 15.1406C17.9785 17.2598 19.7559 18.9688 21.8066 18.9688C23.9258 18.9688 25.6348 17.2598 25.6348 15.1406C25.6348 13.0898 23.9258 11.3125 21.8066 11.3125ZM35 11.3125C31.9238 11.3125 29.5312 8.91992 29.5312 5.84375C29.5312 2.83594 31.9238 0.375 35 0.375C38.0078 0.375 40.4688 2.83594 40.4688 5.84375C40.4688 8.91992 38.0078 11.3125 35 11.3125ZM25.2246 24.4375C30.625 24.4375 35 28.5391 35 33.5977C35 34.623 34.1113 35.375 33.0176 35.375H10.6641C9.57031 35.375 8.75 34.623 8.75 33.5977C8.75 28.5391 13.0566 24.4375 18.457 24.4375H25.2246ZM12.168 32.0938H31.5137C30.7617 29.6328 28.2324 27.7188 25.2246 27.7188H18.3887C15.3809 27.7188 12.8516 29.6328 12.168 32.0938ZM37.666 13.5C41.0156 13.5 43.75 16.3711 43.75 19.9258C43.75 20.6094 43.2031 21.1562 42.5195 21.1562H28.8477C30.2832 19.584 31.1035 17.4648 31.1035 15.1406C31.1035 14.7988 31.0352 14.457 31.0352 14.1152C31.7871 13.7734 32.6074 13.5 33.4961 13.5H37.666ZM12.5098 15.1406C12.5098 17.4648 13.3984 19.584 14.834 21.1562H1.16211C0.478516 21.1562 0 20.6094 0 19.9258C0 16.3711 2.66602 13.5 6.01562 13.5H10.1855C11.0742 13.5 11.8945 13.7051 12.6465 14.1152C12.5781 14.457 12.5098 14.7988 12.5098 15.1406ZM8.75 11.3125C5.67383 11.3125 3.28125 8.91992 3.28125 5.84375C3.28125 2.83594 5.67383 0.375 8.75 0.375C11.7578 0.375 14.2188 2.83594 14.2188 5.84375C14.2188 8.91992 11.7578 11.3125 8.75 11.3125Z" fill="white"/>
</svg>
