<svg width="16" height="15" viewBox="0 0 16 15" fill="none" xmlns="http://www.w3.org/2000/svg">
<path d="M9.28125 0.746094L15.4688 6.65234C15.6445 6.82812 15.75 7.03906 15.75 7.28516C15.75 7.49609 15.6445 7.70703 15.4688 7.88281L9.28125 13.7891C8.96484 14.1055 8.40234 14.1055 8.08594 13.7539C7.76953 13.4375 7.76953 12.875 8.12109 12.5586L12.7969 8.12891H0.84375C0.351562 8.12891 0 7.74219 0 7.28516C0 6.79297 0.351562 6.44141 0.84375 6.44141H12.7969L8.12109 1.97656C7.76953 1.66016 7.76953 1.09766 8.08594 0.78125C8.40234 0.429688 8.92969 0.429688 9.28125 0.746094Z" fill="#6633FF"/>
</svg>
