<svg width="37" height="36" viewBox="0 0 37 36" fill="none" xmlns="http://www.w3.org/2000/svg">
<path d="M18.6191 0.375C19.3027 0.375 19.8496 0.785156 20.123 1.33203L24.8398 10.9707L35.2988 12.543C35.9141 12.6113 36.3926 13.0898 36.5977 13.6367C36.8027 14.252 36.666 14.8672 36.1875 15.3457L28.5996 22.8652L30.377 33.4609C30.5137 34.0762 30.2402 34.7598 29.7617 35.1016C29.2148 35.4434 28.5312 35.5117 27.9844 35.2383L18.6191 30.1797L9.25391 35.2383C8.70703 35.5117 8.0918 35.4434 7.54492 35.1016C7.06641 34.7598 6.79297 34.0762 6.86133 33.4609L8.70703 22.8652L1.11914 15.3457C0.640625 14.8672 0.503906 14.252 0.708984 13.6367C0.914062 13.0898 1.39258 12.6113 2.00781 12.543L12.4668 10.9707L17.1836 1.33203C17.457 0.785156 18.0039 0.375 18.6191 0.375ZM18.6191 5.77539L15.0645 13.2266C14.791 13.7051 14.3809 14.0469 13.834 14.1152L5.69922 15.2773L11.5781 21.0879C11.9883 21.498 12.125 22.0449 12.0566 22.5918L10.6895 30.7266L17.8672 26.8984C18.3457 26.625 18.9609 26.625 19.4395 26.8984L26.6172 30.7266L25.25 22.5918C25.1133 22.0449 25.3184 21.498 25.7285 21.0879L31.5391 15.2773L23.4727 14.1152C22.9258 14.0469 22.4473 13.7051 22.2422 13.2266L18.6191 5.77539Z" fill="white"/>
</svg>
