<svg width="44" height="44" viewBox="0 0 44 44" fill="none" xmlns="http://www.w3.org/2000/svg">
<rect width="44" height="44" rx="4" fill="white"/>
<path d="M18.5781 23.8281C19 23.4062 19.7031 23.4062 20.125 23.875C20.5938 24.2969 20.5938 25 20.125 25.4219L16.3281 29.2656L18.5312 31.4688C18.9531 31.8906 19.0938 32.5469 18.8594 33.1094C18.625 33.6719 18.0625 34 17.5 34H11.125C10.4688 34 10 33.5312 9.95312 32.875V26.5C9.95312 25.9375 10.3281 25.375 10.8906 25.1406C11.0781 25.0469 11.2656 25 11.4531 25C11.875 25 12.25 25.1875 12.5312 25.4688L14.7344 27.6719L18.5781 23.8281ZM32.8281 10C33.4844 10 34 10.5156 34 11.125V17.5C34 18.1094 33.625 18.6719 33.0156 18.9062C32.8281 19 32.6406 19 32.4531 19C32.0312 19 31.6562 18.8594 31.375 18.5781L29.1719 16.375L25.375 20.1719C24.9062 20.6406 24.2031 20.6406 23.7812 20.1719C23.3125 19.75 23.3125 19.0469 23.7812 18.625L27.5781 14.7812L25.375 12.5781C24.9531 12.1562 24.8125 11.5 25.0469 10.9375C25.2812 10.375 25.8438 10 26.4531 10H32.8281Z" fill="#000033"/>
</svg>
