<svg width="27" height="36" viewBox="0 0 27 36" fill="none" xmlns="http://www.w3.org/2000/svg">
<path d="M24.6094 0.375C25.498 0.375 26.25 1.12695 26.25 2.01562C26.25 2.97266 25.498 3.65625 24.6094 3.65625H24.0625V4.95508C24.0625 7.75781 22.9004 10.3555 20.9863 12.3379L15.3809 17.875L20.9863 23.4805C22.9004 25.3945 24.0625 28.0605 24.0625 30.7949V32.0938H24.6094C25.498 32.0938 26.25 32.8457 26.25 33.7344C26.25 34.6914 25.498 35.375 24.6094 35.375H1.64062C0.683594 35.375 0 34.6914 0 33.7344C0 32.8457 0.683594 32.0938 1.64062 32.0938H2.1875V30.7949C2.1875 28.0605 3.28125 25.3945 5.19531 23.4805L10.8008 17.875L5.19531 12.3379C3.28125 10.3555 2.1875 7.75781 2.1875 4.95508V3.65625H1.64062C0.683594 3.65625 0 2.97266 0 2.01562C0 1.12695 0.683594 0.375 1.64062 0.375H24.6094ZM13.125 20.1992L7.51953 25.8047C6.15234 27.1035 5.46875 28.9492 5.46875 30.7949V32.0938H20.7812V30.7949C20.7812 28.9492 20.0293 27.1035 18.6621 25.8047L13.125 20.1992ZM13.125 15.6191L18.6621 10.0137C20.0293 8.64648 20.7812 6.86914 20.7812 4.95508V3.65625H5.46875V4.95508C5.46875 6.86914 6.15234 8.64648 7.51953 10.0137L13.125 15.6191Z" fill="white"/>
</svg>
