<svg width="526" height="1016" viewBox="0 0 526 1016" fill="none" xmlns="http://www.w3.org/2000/svg">
<path d="M74.8613 475.546C74.8613 213.176 287.537 0.720364 549.66 0.720364V0.247892L549.852 0.440738V0.5H549.912L549.986 0.57392L550.059 0.5H593.243C593.247 0.617648 593.253 0.750615 593.261 0.892567C593.288 1.38134 593.345 2.01582 593.469 2.49387L594.453 2.36891C594.453 1.6543 594.454 1.11587 594.573 0.5H1496.6C1499.59 21.7449 1501.3 43.4215 1501.3 65.5033C1501.3 289.835 1339.15 476.39 1125.6 514.168V515.153C1339.15 552.932 1501.3 739.486 1501.3 963.818C1501.3 980.943 1500.24 998.071 1498.54 1014.77H549.66C287.317 1014.77 74.8613 802.07 74.8613 539.948V475.546Z" fill="#FFCF45" stroke="#FFCF45"/>
<path d="M652.8 507.637C587.595 520.308 536.547 572.797 525.942 638.745C515.338 572.796 464.366 520.306 399.083 507.636C464.288 494.965 515.336 442.476 525.942 376.528C536.545 442.477 587.517 494.967 652.8 507.637Z" fill="#F1F2FF" stroke="#FFCF45"/>
<g opacity="0.16">
<path d="M525.143 -51.9508C235.749 -51.9508 0.951172 182.599 0.951172 472.241V543.281C0.951172 832.674 235.501 1067.47 525.143 1067.47H1572.09C1573.99 1048.88 1575.21 1029.82 1575.21 1010.73C1575.21 763.066 1396.19 557.108 1160.43 515.377C1396.19 473.673 1575.21 267.715 1575.21 20.0256C1575.21 -4.51742 1573.31 -28.5922 1569.97 -52.1987H574.229C573.981 -51.2346 573.981 -50.5185 573.981 -49.5819C573.733 -50.546 573.733 -52.1987 573.733 -52.1987H525.335L525.088 -51.9508H525.143Z" stroke="#FFCF45" stroke-miterlimit="10"/>
</g>
</svg>
