<svg width="590" height="1016" viewBox="0 0 590 1016" fill="none" xmlns="http://www.w3.org/2000/svg">
<mask id="mask0_343_438" style="mask-type:luminance" maskUnits="userSpaceOnUse" x="0" y="0" width="590" height="1016">
<path d="M589.86 0H0V1015.25H589.86V0Z" fill="white"/>
</mask>
<g mask="url(#mask0_343_438)">
<path d="M613.66 0.220364C351.261 0.220364 138.361 212.899 138.361 475.546V539.948C138.361 802.346 351.04 1015.27 613.66 1015.27H1562.99C1564.72 998.415 1565.8 981.117 1565.8 963.818C1565.8 739.239 1403.47 552.481 1189.69 514.661C1403.47 476.841 1565.8 290.082 1565.8 65.5033C1565.8 43.2465 1564.06 21.4029 1561.03 0H658.173C657.953 0.853911 657.953 1.515 657.953 2.36891C657.732 1.515 657.732 0 657.732 0H613.852L613.632 0.220364H613.66Z" fill="#000033"/>
<path d="M589.942 642.114C580.438 573.939 527.771 519.536 460.34 507.636C527.689 495.737 580.438 441.334 589.942 373.159C599.445 441.334 652.112 495.737 719.543 507.636C652.194 519.536 599.445 573.939 589.942 642.114Z" fill="#F1F2FF"/>
<g opacity="0.16">
<path d="M589.143 -51.9508C299.749 -51.9508 64.9512 182.599 64.9512 472.241V543.281C64.9512 832.674 299.501 1067.47 589.143 1067.47H1636.09C1637.99 1048.88 1639.21 1029.82 1639.21 1010.73C1639.21 763.066 1460.19 557.108 1224.43 515.377C1460.19 473.673 1639.21 267.715 1639.21 20.0256C1639.21 -4.51742 1637.31 -28.5922 1633.97 -52.1987H638.229C637.981 -51.2346 637.981 -50.5185 637.981 -49.5819C637.733 -50.546 637.733 -52.1987 637.733 -52.1987H589.335L589.088 -51.9508H589.143Z" stroke="#000033" stroke-miterlimit="10"/>
</g>
</g>
</svg>
