<svg width="495" height="196" viewBox="0 0 495 196" fill="none" xmlns="http://www.w3.org/2000/svg">
<g clip-path="url(#clip0_343_137)">
<path d="M346.454 70.8779C343.954 52.9052 330.043 38.5824 312.265 35.4409C330.043 32.2994 343.954 17.9728 346.454 0.00390625C348.953 17.9766 362.864 32.2994 380.642 35.4409C362.864 38.5824 348.953 52.909 346.454 70.8779Z" fill="#DADBFD"/>
<path d="M37.6532 112.791C36.035 93.9118 47.6895 82.5901 67.3481 80.9094C86.3608 79.2855 99.4817 88.9225 100.978 106.402L101.476 112.226L61.8323 115.614C63.3366 119.181 68.3509 120.6 76.7766 119.879C82.5013 119.389 87.4852 117.875 91.9564 115.432L98.6953 129.311C92.8415 133.397 84.7919 135.932 74.6379 136.8C54.3297 138.534 39.1879 130.699 37.6532 112.791ZM76.9931 102.039C76.6322 97.8311 73.7565 96.0099 68.3547 96.4728C62.9529 96.9357 60.4305 99.2159 60.7876 103.424L76.9893 102.039H76.9931Z" fill="#000033"/>
<path d="M136.121 130.464L109.548 132.733L106.528 97.4515L97.6697 98.2066L96.0704 79.5433L104.929 78.7883L104.697 76.0907C104.078 68.8629 105.738 62.853 109.594 58.2849C113.643 53.4816 119.399 50.8181 127.068 50.1617C134.088 49.5623 140.151 50.4577 145.253 52.848L141.507 68.8174C140.011 67.8575 138.13 67.4781 135.859 67.6716C132.508 67.9561 130.958 70.1567 131.315 74.3644L131.501 76.5232L146.947 75.2029L148.546 93.8661L133.101 95.1865L136.121 130.468V130.464Z" fill="#000033"/>
<path d="M147.619 103.397C146.001 84.5177 157.656 73.1961 177.314 71.5153C196.327 69.8914 209.448 79.5285 210.945 97.0079L211.442 102.832L171.798 106.22C173.303 109.787 178.321 111.206 186.747 110.485C192.471 109.995 197.455 108.481 201.926 106.038L208.665 119.917C202.811 124.003 194.762 126.538 184.608 127.406C164.3 129.14 149.158 121.305 147.623 103.397H147.619ZM186.959 92.6447C186.598 88.437 183.723 86.6197 178.321 87.0787C172.919 87.5416 170.393 89.8219 170.754 94.0296L186.959 92.6447Z" fill="#000033"/>
<path d="M240.024 63.0087L212.586 65.3535L211.328 50.6817L238.767 48.3369L240.024 63.0087ZM244.571 121.199L217.999 123.468L213.38 69.5232L239.952 67.2544L244.571 121.199Z" fill="#000033"/>
<path d="M298.115 112.385C293.883 116.335 287.44 118.623 278.798 119.359C271.668 119.97 265.992 118.498 261.761 114.836C257.529 111.175 255.124 105.947 254.531 99.0414L253.32 84.9084L246.3 85.5078L244.7 66.8446L251.72 66.2451L251.018 58.0461L276.925 48.0068L278.293 63.9725L291.793 62.819L293.393 81.4823L279.892 82.6357L280.937 94.8262C281.222 98.1726 282.98 99.6523 286.114 99.3829C288.276 99.197 290.065 98.5027 291.474 97.1861L298.107 112.378L298.115 112.385Z" fill="#000033"/>
<path d="M353.694 105.787C348.053 111.05 340.478 114.089 330.864 114.912C321.249 115.735 313.268 114.024 306.814 109.794C299.896 105.275 296.067 98.6468 295.319 89.909C294.479 80.0898 297.412 72.4485 304.117 66.8787C309.708 62.2727 316.987 59.5826 326.058 58.8086C335.133 58.0346 342.761 59.4461 349.052 63.0391C356.608 67.3947 360.802 74.4252 361.641 84.2444C362.389 92.9822 359.742 100.164 353.694 105.791V105.787ZM334.529 86.5588C334.013 80.5185 331.699 77.673 327.703 78.0144C323.707 78.3559 321.914 81.5505 322.43 87.5946C322.92 93.3123 325.222 96.0516 329.219 95.7102C333.215 95.3687 335.019 92.2803 334.529 86.5626V86.5588Z" fill="#000033"/>
<path d="M412.343 68.9352L389.873 70.855L387.959 48.5228L410.428 46.603L412.343 68.9352ZM415.568 106.588L393.098 108.508L391.184 86.1756L413.653 84.2558L415.568 106.588Z" fill="#000033"/>
<path d="M430.706 102.145C436.708 92.1781 439.204 80.663 438.083 67.6074C436.963 54.5519 432.548 43.6287 424.94 34.8225L442.851 20.3594C455.964 31.1916 463.345 46.2125 464.982 65.3082C466.619 84.404 461.898 100.457 450.817 113.361L430.706 102.145Z" fill="#000033"/>
<path d="M270.479 167.188C270.479 184.037 257.825 195.336 238.751 195.336C219.678 195.336 207.119 184.041 207.119 167.188V130.798C207.119 130.487 207.374 130.233 207.685 130.233H230.136C230.447 130.233 230.702 130.487 230.702 130.798V167.673C230.702 173.414 236.271 177.701 241.741 175.933C244.924 174.905 246.904 172.162 246.904 168.432V130.798C246.904 130.487 247.158 130.233 247.47 130.233H269.92C270.232 130.233 270.486 130.487 270.486 130.798V167.188H270.479Z" fill="white"/>
<path d="M327.316 161.254C333.545 162.976 336.71 167.188 336.71 173.987C336.71 187.581 327.893 194.38 310.157 194.38H277.267C276.956 194.38 276.701 194.126 276.701 193.815V130.798C276.701 130.487 276.956 130.233 277.267 130.233H309.294C326.259 130.233 334.697 136.167 334.697 148.039C334.697 154.261 332.205 158.571 327.316 160.867V161.25V161.254ZM308.527 155.604C311.019 155.604 312.265 154.36 312.265 151.776C312.265 149.192 311.019 147.948 308.622 147.948H300.846C300.534 147.948 300.28 148.202 300.28 148.513V155.043C300.28 155.354 300.534 155.608 300.846 155.608H308.523L308.527 155.604ZM309.294 177.048C311.691 177.048 312.937 175.804 312.937 173.22C312.937 170.636 311.786 169.392 309.389 169.392H300.85C300.538 169.392 300.284 169.646 300.284 169.957V176.487C300.284 176.798 300.538 177.052 300.85 177.052H309.294V177.048Z" fill="white"/>
<path d="M363.556 194.38H341.105C340.794 194.38 340.539 194.126 340.539 193.815V130.798C340.539 130.487 340.794 130.233 341.105 130.233H363.556C363.867 130.233 364.122 130.487 364.122 130.798V193.815C364.122 194.126 363.867 194.38 363.556 194.38Z" fill="white"/>
<path d="M494.434 130.233H469.032C468.808 130.233 468.602 130.366 468.515 130.57L458.695 153.111H458.407L448.682 130.57C448.591 130.362 448.389 130.229 448.161 130.229H371.4C371.088 130.229 370.834 130.483 370.834 130.794V193.811C370.834 194.122 371.088 194.376 371.4 194.376H393.851C394.162 194.376 394.417 194.122 394.417 193.811V171.964C394.417 171.653 394.671 171.399 394.983 171.399H414.748C415.059 171.399 415.314 171.145 415.314 170.834V154.155C415.314 153.844 415.059 153.589 414.748 153.589H394.983C394.671 153.589 394.417 153.335 394.417 153.024V149.655C394.417 149.344 394.671 149.09 394.983 149.09H432.507L446.737 174.138C446.786 174.222 446.809 174.32 446.809 174.415V193.807C446.809 194.118 447.063 194.372 447.375 194.372H469.826C470.137 194.372 470.392 194.118 470.392 193.807V174.415C470.392 174.317 470.418 174.222 470.464 174.138L494.928 131.071C495.14 130.696 494.871 130.229 494.438 130.229L494.434 130.233Z" fill="white"/>
<path d="M199.636 194.566H177.056C176.741 194.566 176.486 194.312 176.486 193.997V172.309C176.486 171.995 176.232 171.74 175.916 171.74H161.242C160.926 171.74 160.672 171.995 160.672 172.309V193.997C160.672 194.312 160.417 194.566 160.102 194.566H137.522C137.207 194.566 136.953 194.312 136.953 193.997V130.616C136.953 130.301 137.207 130.047 137.522 130.047H160.102C160.417 130.047 160.672 130.301 160.672 130.616V152.398C160.672 152.713 160.926 152.967 161.242 152.967H175.916C176.232 152.967 176.486 152.713 176.486 152.398V130.616C176.486 130.301 176.741 130.047 177.056 130.047H199.636C199.951 130.047 200.206 130.301 200.206 130.616V193.997C200.206 194.312 199.951 194.566 199.636 194.566Z" fill="white"/>
<path d="M68.0812 193.815V130.798C68.0812 130.487 68.3357 130.233 68.6472 130.233H95.303C106.232 130.233 114.665 132.915 120.61 138.276C126.745 143.831 129.811 151.871 129.811 162.308C129.811 183.658 117.735 194.38 93.6734 194.38H68.6434C68.3319 194.38 68.0774 194.126 68.0774 193.815H68.0812ZM95.2081 175.709C98.946 175.709 101.632 174.753 103.261 172.742C104.891 170.636 105.753 167.191 105.753 162.308C105.753 157.425 104.891 154.17 103.261 152.159C101.632 150.243 98.9498 149.287 95.2081 149.287H92.226C91.9145 149.287 91.66 149.541 91.66 149.852V175.148C91.66 175.459 91.9145 175.713 92.226 175.713H95.2081V175.709Z" fill="white"/>
<path d="M53.2433 161.201V160.798C58.3792 158.385 60.9965 153.859 60.9965 147.322C60.9965 134.85 52.134 128.617 34.3103 128.617H28.7983C10.9746 128.617 2.1121 134.85 2.1121 147.322C2.1121 153.859 4.72944 158.385 9.86535 160.798V161.201C3.32011 163.01 -0.00379944 167.438 -0.00379944 174.579C-0.00379944 188.86 9.26135 196 27.8904 196H35.2144C53.8435 196 63.1086 188.86 63.1086 174.579C63.1086 167.438 59.7847 163.014 53.2395 161.201H53.2433ZM29.5049 147.219H33.6075C36.1261 147.219 37.4329 148.528 37.4329 151.241C37.4329 153.954 36.1223 155.263 33.505 155.263H29.6037C26.9863 155.263 25.6758 153.954 25.6758 151.241C25.6758 148.528 26.9863 147.219 29.5011 147.219H29.5049ZM34.3103 177.792H28.7983C26.2798 177.792 24.973 176.483 24.973 173.77C24.973 171.058 26.181 169.749 28.6996 169.749H34.4129C36.9314 169.749 38.1395 171.058 38.1395 173.77C38.1395 176.483 36.8289 177.792 34.3141 177.792H34.3103Z" fill="white"/>
<path d="M132.842 174.863H131.988C131.988 174.863 131.988 174.893 131.984 174.908C131.984 174.893 131.984 174.878 131.98 174.863H114.434C114.373 175.276 114.342 175.701 114.342 176.134C114.342 180.493 117.499 184.117 121.651 184.853C117.499 185.589 114.342 189.212 114.342 193.572C114.342 193.909 114.361 194.243 114.399 194.569H132.846C137.948 194.569 142.081 190.438 142.081 185.342V184.094C142.081 178.998 137.944 174.867 132.842 174.867V174.863ZM131.984 192.338C131.456 188.541 128.516 185.513 124.759 184.853C128.516 184.189 131.452 181.161 131.984 177.367C132.512 181.165 135.452 184.189 139.209 184.853C135.452 185.517 132.516 188.544 131.984 192.338Z" fill="#000033"/>
<path d="M131.98 192.339C131.452 188.541 128.512 185.513 124.755 184.853C128.512 184.189 131.448 181.161 131.98 177.367C132.508 181.165 135.448 184.189 139.205 184.853C135.448 185.517 132.512 188.545 131.98 192.339Z" fill="white"/>
</g>
<defs>
<clipPath id="clip0_343_137">
<rect width="495" height="196" fill="white"/>
</clipPath>
</defs>
</svg>
