<svg width="1142" height="775" viewBox="0 0 1142 775" fill="none" xmlns="http://www.w3.org/2000/svg">
<g clip-path="url(#clip0_343_273)">
<path d="M774.943 775C774.943 560.996 601.46 387.5 387.472 387.5C173.484 387.5 0 560.978 0 775H774.943Z" fill="#000033"/>
<path d="M774.943 0C774.943 214.004 601.46 387.5 387.472 387.5C173.484 387.5 0 214.004 0 0H774.943Z" fill="#6633FF"/>
<path d="M934.841 131.975H938.537L948.464 150.688H948.608L958.354 131.975H962.158V158.605H958.463V139.094H958.282L949.677 155.145H947.051L938.609 139.094H938.41V158.605H934.841V131.975Z" fill="#6633FF"/>
<path d="M970.165 145.543H966.814C966.814 140.978 969.712 139.185 974.947 139.185C980.182 139.185 983.932 140.851 983.932 146.902V158.587H980.508V154.293H980.327C979.385 157.445 976.704 158.967 973.172 158.967C969.132 158.967 966.017 156.884 966.017 152.916C966.017 149.257 968.716 147.174 973.353 147.174H980.508V146.612C980.508 143.116 978.642 141.938 975.074 141.938C971.795 141.938 970.165 143.224 970.165 145.561V145.543ZM974.005 149.493C970.817 149.493 969.476 150.815 969.476 152.88C969.476 155.054 971.107 156.503 973.842 156.503C977.755 156.503 980.49 153.877 980.49 151.105V149.511H973.987L974.005 149.493Z" fill="#6633FF"/>
<path d="M988.551 139.584H992.21V143.768H992.391C993.297 140.616 994.746 139.203 997.3 139.203C998.025 139.203 998.623 139.312 999.474 139.584V143.08C998.514 142.808 997.608 142.627 996.739 142.627C993.46 142.627 992.21 145.489 992.21 148.406V158.605H988.551V139.584Z" fill="#6633FF"/>
<path d="M1002.81 131.938H1006.38V147.536L1015.13 139.583H1019.73L1011.43 147.192L1020.07 158.605H1015.65L1008.66 149.294L1006.38 151.504V158.623H1002.81V131.957V131.938Z" fill="#6633FF"/>
<path d="M1039.6 151.666C1038.98 156.467 1035.87 158.967 1030.16 158.967C1024.45 158.967 1020.54 154.511 1020.54 149.076C1020.54 143.641 1024.31 139.185 1030.16 139.185C1036.43 139.185 1039.53 143.641 1039.53 147.971V149.674H1023.58C1023.8 153.514 1026.21 156.032 1030.16 156.032C1034.11 156.032 1036.01 154.474 1036.59 151.648H1039.6V151.666ZM1036.48 147.681C1036.21 144.873 1034.27 142.083 1030.21 142.083C1026.45 142.083 1024.2 144.366 1023.71 147.681H1036.48Z" fill="#6633FF"/>
<path d="M1051.46 155.978C1053.33 155.978 1054.27 155.526 1055.3 154.837L1055.99 157.536C1054.78 158.406 1052.88 158.986 1050.63 158.986C1047.21 158.986 1044.74 157.428 1044.74 153.007V142.355H1041.32V139.584H1044.74V134.022H1048.4V139.584H1054.42V142.355H1048.4V153.116C1048.4 155.163 1049.51 155.978 1051.48 155.978H1051.46Z" fill="#6633FF"/>
<path d="M1058.47 131.975H1062.59V135.435H1058.47V131.975ZM1062.31 139.583V158.605H1058.75V139.583H1062.31Z" fill="#6633FF"/>
<path d="M1071.01 147.137V158.587H1067.44V139.565H1071.01V143.822H1071.32C1072.22 140.851 1074.74 139.185 1078.27 139.185C1082.31 139.185 1086.19 141.087 1086.19 147.137V158.587H1082.62V147.137C1082.62 143.061 1080.34 141.503 1077.37 141.503C1073.76 141.503 1071.01 143.895 1071.01 147.137Z" fill="#6633FF"/>
<path d="M1099.29 139.203C1100.95 139.203 1102.47 139.438 1103.74 139.964C1104.09 137.609 1105.88 135.743 1109.76 135.743V138.514C1107.02 138.514 1105.5 139.312 1105.12 140.652C1106.98 141.866 1108.05 143.84 1108.05 146.594C1108.05 151.92 1104.36 154.167 1099.3 154.167C1097.26 154.167 1095.46 153.75 1094.01 152.953C1093.33 153.442 1092.91 154.094 1092.91 155C1092.91 156.069 1094.2 156.594 1095.92 156.594H1103.18C1107.51 156.594 1109.61 158.261 1109.61 161.884C1109.61 166.522 1105.43 168.279 1098.92 168.279C1093.8 168.279 1089.76 166.648 1089.76 162.609C1089.76 160.471 1090.75 159.42 1092.57 158.913C1090.94 158.261 1090.32 156.902 1090.32 155.562C1090.32 153.623 1091.7 152.717 1092.87 152.138C1091.32 150.851 1090.45 148.985 1090.45 146.576C1090.45 141.866 1093.98 139.203 1099.3 139.203H1099.29ZM1092.78 162.138C1092.78 164.42 1095.1 165.525 1099.1 165.525C1103.91 165.525 1106.41 164.312 1106.41 161.866C1106.41 160.072 1105.16 159.275 1102.98 159.275H1095.95C1094.01 159.475 1092.8 160.453 1092.8 162.138H1092.78ZM1099.32 151.648C1102.75 151.648 1105.14 149.819 1105.14 146.594C1105.14 143.369 1102.75 141.884 1099.32 141.884C1095.9 141.884 1093.44 143.442 1093.44 146.594C1093.44 149.746 1095.92 151.648 1099.32 151.648Z" fill="#6633FF"/>
<path d="M932.178 377.898H936.091L944.043 399.891H944.315L952.485 377.898H956.669L946.018 404.529H942.141L932.178 377.898Z" fill="#6633FF"/>
<path d="M976.523 397.609C975.907 402.41 972.791 404.91 967.085 404.91C961.379 404.91 957.466 400.453 957.466 395.018C957.466 389.583 961.234 385.127 967.085 385.127C973.353 385.127 976.45 389.583 976.45 393.913V395.634H960.51C960.745 399.475 963.136 401.993 967.085 401.993C971.034 401.993 972.936 400.435 973.516 397.627H976.523V397.609ZM973.407 393.605C973.135 390.797 971.197 388.007 967.14 388.007C963.372 388.007 961.125 390.29 960.636 393.605H973.407Z" fill="#6633FF"/>
<path d="M983.823 393.08V404.529H980.254V385.507H983.823V389.765H984.131C985.037 386.794 987.555 385.127 991.087 385.127C995.126 385.127 999.003 387.029 999.003 393.08V404.529H995.434V393.08C995.434 389.004 993.152 387.446 990.181 387.446C986.576 387.446 983.823 389.837 983.823 393.08Z" fill="#6633FF"/>
<path d="M1022.7 404.529H1019.16V399.964H1018.97C1018.01 403.116 1015.02 404.91 1011.47 404.91C1007.44 404.91 1002.92 403.044 1002.92 395.018C1002.92 386.993 1007.44 385.127 1011.47 385.127C1015 385.127 1018.01 386.92 1018.97 390.073H1019.16V377.826H1022.7V404.529ZM1019.16 396.612V393.188C1019.16 390.525 1016.65 387.826 1012.73 387.826C1009.38 387.826 1006.54 389.312 1006.54 395.018C1006.54 400.725 1009.38 402.174 1012.73 402.174C1016.65 402.174 1019.16 399.402 1019.16 396.612Z" fill="#6633FF"/>
<path d="M1030.5 391.486H1027.15C1027.15 386.92 1030.05 385.127 1035.29 385.127C1040.52 385.127 1044.27 386.794 1044.27 392.844V404.529H1040.85V400.236H1040.65C1039.69 403.388 1037.04 404.91 1033.49 404.91C1029.45 404.91 1026.34 402.808 1026.34 398.859C1026.34 395.199 1029.04 393.116 1033.67 393.116H1040.83V392.536C1040.83 389.04 1038.96 387.862 1035.4 387.862C1032.12 387.862 1030.49 389.149 1030.49 391.468L1030.5 391.486ZM1034.34 395.435C1031.16 395.435 1029.82 396.775 1029.82 398.823C1029.82 400.997 1031.45 402.428 1034.2 402.428C1038.11 402.428 1040.85 399.801 1040.85 397.029V395.435H1034.34Z" fill="#6633FF"/>
<path d="M1060.14 391.177C1060.14 388.478 1058.06 387.337 1055.27 387.337C1052.79 387.337 1051.01 388.279 1051.01 390.308C1051.01 392.482 1053.4 392.898 1056.14 393.532C1060.01 394.565 1063.4 395.199 1063.4 399.311C1063.4 403.424 1059.98 404.909 1055.27 404.909C1050.56 404.909 1047.48 402.735 1047.48 397.953H1050.49C1050.49 400.96 1052.42 402.282 1055.36 402.282C1058.29 402.282 1060.07 401.485 1060.1 399.348C1060.14 397.065 1057.4 396.54 1054.22 395.779C1050.87 394.982 1047.82 394.148 1047.82 390.489C1047.82 386.83 1050.59 384.891 1055.23 384.891C1060.7 384.891 1063.02 387.355 1063.02 391.159H1060.12L1060.14 391.177Z" fill="#6633FF"/>
<path d="M938.519 636.467V646.159H934.823V619.529H944.859C951.815 619.529 954.17 622.989 954.17 627.79C954.17 632.59 951.199 636.467 944.859 636.467H938.501H938.519ZM938.519 622.808V633.224H944.333C948.065 633.224 950.311 631.214 950.311 627.862C950.311 624.511 948.645 622.808 944.297 622.808H938.519Z" fill="#6633FF"/>
<path d="M965.98 626.848C971.234 626.848 975.726 630.127 975.726 636.703C975.726 643.279 971.234 646.558 965.98 646.558C960.727 646.558 956.289 643.025 956.289 636.703C956.289 630.38 960.709 626.848 965.98 626.848ZM965.98 643.623C969.513 643.623 972.411 641.232 972.411 636.703C972.411 632.174 969.513 629.783 965.98 629.783C962.448 629.783 959.514 632.138 959.514 636.703C959.514 641.268 962.521 643.623 965.98 643.623ZM971.686 620.761L967.049 625.254H964.658L967.901 620.761H971.705H971.686Z" fill="#6633FF"/>
<path d="M990.942 632.826C990.942 630.127 988.859 628.986 986.07 628.986C983.588 628.986 981.813 629.946 981.813 631.957C981.813 634.131 984.204 634.547 986.939 635.199C990.816 636.232 994.203 636.866 994.203 640.978C994.203 645.091 990.779 646.576 986.07 646.576C981.36 646.576 978.28 644.402 978.28 639.62H981.287C981.287 642.627 983.226 643.949 986.16 643.949C989.095 643.949 990.87 643.152 990.906 641.015C990.942 638.732 988.207 638.207 985.019 637.446C981.668 636.649 978.624 635.815 978.624 632.156C978.624 628.497 981.396 626.558 986.033 626.558C991.504 626.558 993.823 629.04 993.823 632.826H990.924H990.942Z" fill="#6633FF"/>
<path d="M1009.13 633.551V636.522H996.884V633.551H1009.13Z" fill="#6633FF"/>
<path d="M1010.76 619.547H1014.67L1022.62 641.54H1022.9L1031.07 619.547H1035.25L1024.6 646.177H1020.72L1010.76 619.547Z" fill="#6633FF"/>
<path d="M1055.12 639.257C1054.51 644.058 1051.39 646.558 1045.68 646.558C1039.98 646.558 1036.07 642.101 1036.07 636.667C1036.07 631.232 1039.83 626.775 1045.68 626.775C1051.95 626.775 1055.05 631.232 1055.05 635.562V637.264H1039.11C1039.34 641.105 1041.74 643.623 1045.68 643.623C1049.63 643.623 1051.54 642.065 1052.11 639.239H1055.12V639.257ZM1052.01 635.272C1051.73 632.464 1049.8 629.674 1045.74 629.674C1041.97 629.674 1039.72 631.957 1039.24 635.272H1052.01Z" fill="#6633FF"/>
<path d="M1062.42 634.728V646.178H1058.85V627.156H1062.42V631.413H1062.73C1063.64 628.442 1066.15 626.775 1069.69 626.775C1073.71 626.775 1077.6 628.678 1077.6 634.728V646.178H1074.03V634.728C1074.03 630.652 1071.75 629.094 1068.78 629.094C1065.16 629.094 1062.42 631.486 1062.42 634.728Z" fill="#6633FF"/>
<path d="M1101.3 646.177H1097.76V641.612H1097.58C1096.64 644.764 1093.63 646.558 1090.08 646.558C1086.04 646.558 1081.53 644.692 1081.53 636.667C1081.53 628.641 1086.06 626.775 1090.08 626.775C1093.62 626.775 1096.62 628.569 1097.58 631.721H1097.76V619.475H1101.3V646.177ZM1097.76 638.261V634.837C1097.76 632.174 1095.26 629.475 1091.33 629.475C1087.98 629.475 1085.14 630.96 1085.14 636.667C1085.14 642.373 1088 643.822 1091.33 643.822C1095.25 643.822 1097.76 641.051 1097.76 638.261Z" fill="#6633FF"/>
<path d="M1109.1 633.134H1105.75C1105.75 628.569 1108.65 626.775 1113.89 626.775C1119.12 626.775 1122.87 628.442 1122.87 634.493V646.178H1119.45V641.884H1119.25C1118.29 645.036 1115.64 646.558 1112.09 646.558C1108.05 646.558 1104.94 644.475 1104.94 640.507C1104.94 636.848 1107.64 634.765 1112.27 634.765H1119.43V634.203C1119.43 630.707 1117.56 629.529 1113.99 629.529C1110.72 629.529 1109.09 630.815 1109.09 633.152L1109.1 633.134ZM1112.94 637.083C1109.76 637.083 1108.42 638.406 1108.42 640.471C1108.42 642.645 1110.05 644.094 1112.8 644.094C1116.71 644.094 1119.45 641.467 1119.45 638.696V637.101H1112.94V637.083Z" fill="#6633FF"/>
<path d="M1138.72 632.826C1138.72 630.127 1136.64 628.986 1133.85 628.986C1131.37 628.986 1129.59 629.946 1129.59 631.957C1129.59 634.131 1131.98 634.547 1134.72 635.199C1138.59 636.232 1141.98 636.866 1141.98 640.978C1141.98 645.091 1138.56 646.576 1133.85 646.576C1129.14 646.576 1126.06 644.402 1126.06 639.62H1129.07C1129.07 642.627 1131 643.949 1133.94 643.949C1136.87 643.949 1138.65 643.152 1138.69 641.015C1138.72 638.732 1135.99 638.207 1132.8 637.446C1129.45 636.649 1126.4 635.815 1126.4 632.156C1126.4 628.497 1129.18 626.558 1133.81 626.558C1139.28 626.558 1141.6 629.04 1141.6 632.826H1138.7H1138.72Z" fill="#6633FF"/>
<path d="M387.508 421.033C407.317 421.033 423.375 404.973 423.375 385.163C423.375 365.353 407.317 349.293 387.508 349.293C367.699 349.293 351.641 365.353 351.641 385.163C351.641 404.973 367.699 421.033 387.508 421.033Z" fill="white"/>
<path d="M436.943 385.163H866.078" stroke="#DADBFD" stroke-linecap="round" stroke-linejoin="round"/>
<path d="M884.591 369.656C884.591 368.555 883.699 367.663 882.599 367.663C881.498 367.663 880.606 368.555 880.606 369.656V400.688C880.606 401.789 881.498 402.681 882.599 402.681C883.699 402.681 884.591 401.789 884.591 400.688V369.656Z" fill="#DADBFD"/>
<path d="M387.508 175.67C407.317 175.67 423.375 159.611 423.375 139.801C423.375 119.991 407.317 103.931 387.508 103.931C367.699 103.931 351.641 119.991 351.641 139.801C351.641 159.611 367.699 175.67 387.508 175.67Z" stroke="white" stroke-miterlimit="10"/>
<path d="M436.943 139.801H866.078" stroke="#DADBFD" stroke-linecap="round" stroke-linejoin="round"/>
<path d="M884.591 124.294C884.591 123.193 883.699 122.301 882.599 122.301C881.498 122.301 880.606 123.193 880.606 124.294V155.326C880.606 156.427 881.498 157.319 882.599 157.319C883.699 157.319 884.591 156.427 884.591 155.326V124.294Z" fill="#DADBFD"/>
<path d="M387.508 175.67C407.317 175.67 423.375 159.611 423.375 139.801C423.375 119.991 407.317 103.931 387.508 103.931C367.699 103.931 351.641 119.991 351.641 139.801C351.641 159.611 367.699 175.67 387.508 175.67Z" stroke="white" stroke-miterlimit="10"/>
<path d="M387.508 153.134C394.871 153.134 400.841 147.164 400.841 139.801C400.841 132.437 394.871 126.467 387.508 126.467C380.145 126.467 374.176 132.437 374.176 139.801C374.176 147.164 380.145 153.134 387.508 153.134Z" fill="white"/>
<path d="M436.943 635.181H866.078" stroke="#DADBFD" stroke-linecap="round" stroke-linejoin="round"/>
<path d="M884.591 619.674C884.591 618.573 883.699 617.681 882.599 617.681C881.498 617.681 880.606 618.573 880.606 619.674V650.707C880.606 651.807 881.498 652.699 882.599 652.699C883.699 652.699 884.591 651.807 884.591 650.707V619.674Z" fill="#DADBFD"/>
<path d="M387.508 671.051C407.317 671.051 423.375 654.991 423.375 635.181C423.375 615.371 407.317 599.312 387.508 599.312C367.699 599.312 351.641 615.371 351.641 635.181C351.641 654.991 367.699 671.051 387.508 671.051Z" stroke="white" stroke-miterlimit="10"/>
<path d="M387.508 648.514C394.871 648.514 400.841 642.545 400.841 635.181C400.841 627.817 394.871 621.848 387.508 621.848C380.145 621.848 374.176 627.817 374.176 635.181C374.176 642.545 380.145 648.514 387.508 648.514Z" fill="white"/>
<path d="M370.227 385.163C379.012 383.569 385.878 376.703 387.472 367.917C389.066 376.703 395.931 383.569 404.717 385.163C395.931 386.757 389.066 393.623 387.472 402.409C385.878 393.623 379.012 386.757 370.227 385.163Z" fill="#6633FF"/>
<path d="M387.508 445.417V568.804" stroke="#DADBFD" stroke-width="0.75" stroke-linecap="round" stroke-linejoin="round"/>
<path d="M381.947 564.312L382.943 563.388L387.508 568.279L392.073 563.388L393.069 564.312L387.508 570.29L381.947 564.312Z" fill="#DADBFD"/>
<path d="M387.508 200.054V323.442" stroke="#DADBFD" stroke-width="0.75" stroke-linecap="round" stroke-linejoin="round"/>
<path d="M381.947 318.949L382.943 318.007L387.508 322.917L392.073 318.007L393.069 318.949L387.508 324.91L381.947 318.949Z" fill="#DADBFD"/>
</g>
<defs>
<clipPath id="clip0_343_273">
<rect width="1142" height="775" fill="white"/>
</clipPath>
</defs>
</svg>
